<?xml version="1.0" encoding="utf-8"?>
<svg xmlns="http://www.w3.org/2000/svg" xmlns:xlink="http://www.w3.org/1999/xlink" style="margin: auto; background: none; display: block; shape-rendering: auto;" width="200px" height="200px" viewBox="0 0 100 100" preserveAspectRatio="xMidYMid">
<g transform="translate(50 50)">
<g>
<animateTransform attributeName="transform" type="rotate" values="0;40" keyTimes="0;1" dur="2.272727272727273s" repeatCount="indefinite"></animateTransform><path d="M9.9498743710662 -1 L28.9498743710662 -1 L28.9498743710662 1 L9.9498743710662 1 A10 10 0 0 1 8.264833581373738 5.629611520540022 L8.264833581373738 5.629611520540022 L22.81967800063432 17.842576104584268 L21.53410278126124 19.374664990822225 L6.9792583620006585 7.16170040677798 A10 10 0 0 1 2.7125853055627487 9.625065244456529 L2.7125853055627487 9.625065244456529 L6.011900681234427 28.336412551688483 L4.0422851752100115 28.683708907022343 L0.7429697995383335 9.972361599790391 A10 10 0 0 1 -4.10891178174866 9.116843969807043 L-4.10891178174866 9.116843969807043 L-13.608911781748656 25.571326641711376 L-15.340962589317533 24.57132664171138 L-5.840962589317536 8.116843969807045 A10 10 0 0 1 -9.007803380912069 4.342750079250369 L-9.007803380912069 4.342750079250369 L-26.861963175844327 10.841132802438077 L-27.546003462495666 8.961747560866261 L-9.691843667563408 2.4633648376785535 A10 10 0 0 1 -9.691843667563408 -2.463364837678551 L-9.691843667563408 -2.463364837678551 L-27.54600346249567 -8.961747560866257 L-26.86196317584433 -10.841132802438072 L-9.00780338091207 -4.342750079250367 A10 10 0 0 1 -5.840962589317542 -8.116843969807041 L-5.840962589317542 -8.116843969807041 L-15.34096258931755 -24.571326641711373 L-13.608911781748674 -25.571326641711373 L-4.108911781748666 -9.116843969807041 A10 10 0 0 1 0.7429697995383289 -9.972361599790391 L0.7429697995383289 -9.972361599790391 L4.042285175209998 -28.68370890702235 L6.011900681234414 -28.33641255168849 L2.7125853055627442 -9.625065244456533 A10 10 0 0 1 6.979258362000658 -7.161700406777981 L6.979258362000658 -7.161700406777981 L21.534102781261236 -19.374664990822232 L22.819678000634312 -17.84257610458428 L8.264833581373736 -5.629611520540027 A10 10 0 0 1 9.9498743710662 -1.0000000000000018 M0 -20A20 20 0 1 0 0 20 A20 20 0 1 0 0 -20" fill="#acb796"></path></g></g>
<!-- [ldio] generated by https://loading.io/ --></svg>